ISO-10303-21;
HEADER;
FILE_DESCRIPTION (( 'STEP AP214' ),
    '1' );
FILE_NAME ('±³¸Ç.STEP',
    '2026-09-19T09:45:14',
    ( 'Steve' ),
    ( 'Windsys.win' ),
    'SwSTEP 2.0',
    'SolidWorks 2023',
    '' );
FILE_SCHEMA (( 'AUTOMOTIVE_DESIGN' ));
ENDSEC;

DATA;
#1 = PRODUCT ( '\X2\80cc76d6\X0\', '\X2\80cc76d6\X0\', '', ( #185 ) ) ;
#2 = PRODUCT_DEFINITION ( 'æœ', '', #73, #127 ) ;
#3 = EDGE_CURVE ( 'NONE', #51, #131, #151, .T. ) ;
#4 = SURFACE_SIDE_STYLE ('',( #180 ) ) ;
#5 = LINE ( 'NONE', #69, #28 ) ;
#6 = DIRECTION ( 'NONE',  ( -1.000000000000000000, 0.000000000000000000, 9.251858538542971581E-17 ) ) ;
#7 = PLANE ( 'NONE',  #165 ) ;
#8 = CARTESIAN_POINT ( 'NONE',  ( 37.50000000000000711, 2.000000000000000000, -22.50000000000000355 ) ) ;
#9 = CARTESIAN_POINT ( 'NONE',  ( -37.49999999999999289, 2.000000000000000000, 22.50000000000000355 ) ) ;
#10 = ORIENTED_EDGE ( 'NONE', *, *, #45, .T. ) ;
#11 = VECTOR ( 'NONE', #135, 1000.000000000000000 ) ;
#12 = EDGE_LOOP ( 'NONE', ( #41, #186, #128, #98 ) ) ;
#13 = EDGE_CURVE ( 'NONE', #51, #177, #90, .T. ) ;
#14 = VECTOR ( 'NONE', #21, 1000.000000000000000 ) ;
#15 = SHAPE_DEFINITION_REPRESENTATION ( #88, #154 ) ;
#16 = UNCERTAINTY_MEASURE_WITH_UNIT (LENGTH_MEASURE( 1.000000000000000082E-05 ), #182, 'distance_accuracy_value', 'NONE');
#17 =( GEOMETRIC_REPRESENTATION_CONTEXT ( 3 ) GLOBAL_UNCERTAINTY_ASSIGNED_CONTEXT ( ( #162 ) ) GLOBAL_UNIT_ASSIGNED_CONTEXT ( ( #178, #118, #96 ) ) REPRESENTATION_CONTEXT ( 'NONE', 'WORKASPACE' ) );
#18 = EDGE_LOOP ( 'NONE', ( #78, #174, #100, #187 ) ) ;
#19 = PRESENTATION_STYLE_ASSIGNMENT (( #36 ) ) ;
#20 = DIRECTION ( 'NONE',  ( 1.000000000000000000, -0.000000000000000000, 0.000000000000000000 ) ) ;
#21 = DIRECTION ( 'NONE',  ( 1.000000000000000000, -0.000000000000000000, -9.251858538542971581E-17 ) ) ;
#22 = CARTESIAN_POINT ( 'NONE',  ( -37.49999999999999289, 2.000000000000000000, 22.50000000000000355 ) ) ;
#23 = LINE ( 'NONE', #66, #129 ) ;
#24 = DIRECTION ( 'NONE',  ( -1.000000000000000000, 0.000000000000000000, 9.251858538542971581E-17 ) ) ;
#25 = APPLICATION_CONTEXT ( 'automotive_design' ) ;
#26 = EDGE_CURVE ( 'NONE', #29, #57, #68, .T. ) ;
#27 = AXIS2_PLACEMENT_3D ( 'NONE', #56, #81, #134 ) ;
#28 = VECTOR ( 'NONE', #67, 1000.000000000000000 ) ;
#29 = VERTEX_POINT ( 'NONE', #33 ) ;
#30 = EDGE_CURVE ( 'NONE', #145, #63, #121, .T. ) ;
#31 = FACE_OUTER_BOUND ( 'NONE', #12, .T. ) ;
#32 = AXIS2_PLACEMENT_3D ( 'NONE', #146, #167, #82 ) ;
#33 = CARTESIAN_POINT ( 'NONE',  ( 37.50000000000000711, 2.000000000000000000, 22.49999999999999645 ) ) ;
#34 = ORIENTED_EDGE ( 'NONE', *, *, #126, .F. ) ;
#35 = DIRECTION ( 'NONE',  ( -0.000000000000000000, -1.000000000000000000, -0.000000000000000000 ) ) ;
#36 = SURFACE_STYLE_USAGE ( .BOTH. , #4 ) ;
#37 = CARTESIAN_POINT ( 'NONE',  ( 37.50000000000000711, 2.000000000000000000, 22.49999999999999645 ) ) ;
#38 = CARTESIAN_POINT ( 'NONE',  ( 0.000000000000000000, 2.000000000000000000, 0.000000000000000000 ) ) ;
#39 = LINE ( 'NONE', #181, #59 ) ;
#40 = EDGE_CURVE ( 'NONE', #76, #29, #23, .T. ) ;
#41 = ORIENTED_EDGE ( 'NONE', *, *, #130, .T. ) ;
#42 = MANIFOLD_SOLID_BREP ( 'Í¹Ì¨-À­Éì1', #159 ) ;
#43 = STYLED_ITEM ( 'NONE', ( #19 ), #42 ) ;
#44 = VECTOR ( 'NONE', #24, 1000.000000000000000 ) ;
#45 = EDGE_CURVE ( 'NONE', #131, #145, #92, .T. ) ;
#46 = CARTESIAN_POINT ( 'NONE',  ( -37.49999999999999289, 2.000000000000000000, -22.49999999999999645 ) ) ;
#47 = CARTESIAN_POINT ( 'NONE',  ( 37.50000000000000711, 2.000000000000000000, -22.50000000000000355 ) ) ;
#48 = APPLICATION_PROTOCOL_DEFINITION ( 'draft international standard', 'automotive_design', 1998, #25 ) ;
#49 = PLANE ( 'NONE',  #32 ) ;
#50 = DIRECTION ( 'NONE',  ( -9.251858538542971581E-17, 0.000000000000000000, -1.000000000000000000 ) ) ;
#51 = VERTEX_POINT ( 'NONE', #164 ) ;
#52 = LINE ( 'NONE', #22, #150 ) ;
#53 = DIRECTION ( 'NONE',  ( -0.000000000000000000, -1.000000000000000000, -0.000000000000000000 ) ) ;
#54 = FACE_OUTER_BOUND ( 'NONE', #148, .T. ) ;
#55 = CARTESIAN_POINT ( 'NONE',  ( -37.49999999999999289, 0.000000000000000000, 22.50000000000000355 ) ) ;
#56 = CARTESIAN_POINT ( 'NONE',  ( 0.000000000000000000, 0.000000000000000000, 0.000000000000000000 ) ) ;
#57 = VERTEX_POINT ( 'NONE', #133 ) ;
#58 = AXIS2_PLACEMENT_3D ( 'NONE', #103, #85, #124 ) ;
#59 = VECTOR ( 'NONE', #149, 1000.000000000000000 ) ;
#60 = ADVANCED_FACE ( 'NONE', ( #31 ), #49, .F. ) ;
#61 = ORIENTED_EDGE ( 'NONE', *, *, #116, .F. ) ;
#62 = FILL_AREA_STYLE_COLOUR ( '', #161 ) ;
#63 = VERTEX_POINT ( 'NONE', #55 ) ;
#64 = FACE_OUTER_BOUND ( 'NONE', #117, .T. ) ;
#65 = ADVANCED_FACE ( 'NONE', ( #112 ), #170, .T. ) ;
#66 = CARTESIAN_POINT ( 'NONE',  ( 37.50000000000000711, 2.000000000000000000, 22.49999999999999645 ) ) ;
#67 = DIRECTION ( 'NONE',  ( -0.000000000000000000, -0.000000000000000000, 1.000000000000000000 ) ) ;
#68 = LINE ( 'NONE', #37, #141 ) ;
#69 = CARTESIAN_POINT ( 'NONE',  ( -37.49999999999999289, 2.000000000000000000, 22.50000000000000355 ) ) ;
#70 = FILL_AREA_STYLE ('',( #62 ) ) ;
#71 = VECTOR ( 'NONE', #105, 1000.000000000000000 ) ;
#72 = ORIENTED_EDGE ( 'NONE', *, *, #126, .T. ) ;
#73 = PRODUCT_DEFINITION_FORMATION_WITH_SPECIFIED_SOURCE ( 'ä»', '', #1, .NOT_KNOWN. ) ;
#74 = ADVANCED_FACE ( 'NONE', ( #119 ), #83, .F. ) ;
#75 = VECTOR ( 'NONE', #140, 1000.000000000000000 ) ;
#76 = VERTEX_POINT ( 'NONE', #9 ) ;
#77 = PRESENTATION_LAYER_ASSIGNMENT (  '', '', ( #43 ) ) ;
#78 = ORIENTED_EDGE ( 'NONE', *, *, #116, .T. ) ;
#79 = ORIENTED_EDGE ( 'NONE', *, *, #80, .T. ) ;
#80 = EDGE_CURVE ( 'NONE', #29, #51, #39, .T. ) ;
#81 = DIRECTION ( 'NONE',  ( 0.000000000000000000, 1.000000000000000000, 0.000000000000000000 ) ) ;
#82 = DIRECTION ( 'NONE',  ( 0.000000000000000000, 0.000000000000000000, 1.000000000000000000 ) ) ;
#83 = PLANE ( 'NONE',  #176 ) ;
#84 = LINE ( 'NONE', #168, #44 ) ;
#85 = DIRECTION ( 'NONE',  ( 0.000000000000000000, 0.000000000000000000, 1.000000000000000000 ) ) ;
#86 = ORIENTED_EDGE ( 'NONE', *, *, #144, .F. ) ;
#87 = ORIENTED_EDGE ( 'NONE', *, *, #40, .F. ) ;
#88 = PRODUCT_DEFINITION_SHAPE ( 'NONE', 'NONE',  #2 ) ;
#89 =( GEOMETRIC_REPRESENTATION_CONTEXT ( 3 ) GLOBAL_UNCERTAINTY_ASSIGNED_CONTEXT ( ( #16 ) ) GLOBAL_UNIT_ASSIGNED_CONTEXT ( ( #182, #139, #138 ) ) REPRESENTATION_CONTEXT ( 'NONE', 'WORKASPACE' ) );
#90 = LINE ( 'NONE', #47, #71 ) ;
#91 = VECTOR ( 'NONE', #6, 1000.000000000000000 ) ;
#92 = LINE ( 'NONE', #46, #125 ) ;
#93 = ADVANCED_FACE ( 'NONE', ( #64 ), #7, .F. ) ;
#94 = ORIENTED_EDGE ( 'NONE', *, *, #26, .F. ) ;
#95 = CARTESIAN_POINT ( 'NONE',  ( 37.50000000000000711, 2.000000000000000000, 22.49999999999999645 ) ) ;
#96 =( NAMED_UNIT ( * ) SI_UNIT ( $, .STERADIAN. ) SOLID_ANGLE_UNIT ( ) );
#97 = CARTESIAN_POINT ( 'NONE',  ( -37.49999999999999289, 2.000000000000000000, 22.50000000000000355 ) ) ;
#98 = ORIENTED_EDGE ( 'NONE', *, *, #26, .T. ) ;
#99 = CARTESIAN_POINT ( 'NONE',  ( 37.50000000000000711, 0.000000000000000000, 22.49999999999999645 ) ) ;
#100 = ORIENTED_EDGE ( 'NONE', *, *, #3, .F. ) ;
#101 = DIRECTION ( 'NONE',  ( 9.251858538542971581E-17, -0.000000000000000000, 1.000000000000000000 ) ) ;
#102 = ORIENTED_EDGE ( 'NONE', *, *, #130, .F. ) ;
#103 = CARTESIAN_POINT ( 'NONE',  ( 0.000000000000000000, 0.000000000000000000, 0.000000000000000000 ) ) ;
#104 = AXIS2_PLACEMENT_3D ( 'NONE', #38, #123, #184 ) ;
#105 = DIRECTION ( 'NONE',  ( -0.000000000000000000, -1.000000000000000000, -0.000000000000000000 ) ) ;
#106 = CARTESIAN_POINT ( 'NONE',  ( -37.49999999999999289, 2.000000000000000000, -22.49999999999999645 ) ) ;
#107 = EDGE_LOOP ( 'NONE', ( #179, #34, #86, #10 ) ) ;
#108 = APPLICATION_CONTEXT ( 'automotive_design' ) ;
#109 = CARTESIAN_POINT ( 'NONE',  ( 37.50000000000000711, 0.000000000000000000, -22.50000000000000355 ) ) ;
#110 = CARTESIAN_POINT ( 'NONE',  ( -37.49999999999999289, 0.000000000000000000, 22.50000000000000355 ) ) ;
#111 = LINE ( 'NONE', #99, #75 ) ;
#112 = FACE_OUTER_BOUND ( 'NONE', #172, .T. ) ;
#113 = PLANE ( 'NONE',  #27 ) ;
#114 = ADVANCED_FACE ( 'NONE', ( #54 ), #113, .F. ) ;
#115 = ORIENTED_EDGE ( 'NONE', *, *, #152, .T. ) ;
#116 = EDGE_CURVE ( 'NONE', #177, #145, #84, .T. ) ;
#117 = EDGE_LOOP ( 'NONE', ( #115, #94, #87, #72 ) ) ;
#118 =( NAMED_UNIT ( * ) PLANE_ANGLE_UNIT ( ) SI_UNIT ( $, .RADIAN. ) );
#119 = FACE_OUTER_BOUND ( 'NONE', #107, .T. ) ;
#120 = FACE_OUTER_BOUND ( 'NONE', #18, .T. ) ;
#121 = LINE ( 'NONE', #110, #11 ) ;
#122 = DIRECTION ( 'NONE',  ( -1.000000000000000000, 0.000000000000000000, 9.251858538542971581E-17 ) ) ;
#123 = DIRECTION ( 'NONE',  ( 0.000000000000000000, 1.000000000000000000, 0.000000000000000000 ) ) ;
#124 = DIRECTION ( 'NONE',  ( 1.000000000000000000, 0.000000000000000000, 0.000000000000000000 ) ) ;
#125 = VECTOR ( 'NONE', #53, 1000.000000000000000 ) ;
#126 = EDGE_CURVE ( 'NONE', #76, #63, #52, .T. ) ;
#127 = PRODUCT_DEFINITION_CONTEXT ( 'detailed design', #25, 'design' ) ;
#128 = ORIENTED_EDGE ( 'NONE', *, *, #80, .F. ) ;
#129 = VECTOR ( 'NONE', #132, 1000.000000000000000 ) ;
#130 = EDGE_CURVE ( 'NONE', #57, #177, #111, .T. ) ;
#131 = VERTEX_POINT ( 'NONE', #106 ) ;
#132 = DIRECTION ( 'NONE',  ( 1.000000000000000000, -0.000000000000000000, -9.251858538542971581E-17 ) ) ;
#133 = CARTESIAN_POINT ( 'NONE',  ( 37.50000000000000711, 0.000000000000000000, 22.49999999999999645 ) ) ;
#134 = DIRECTION ( 'NONE',  ( 0.000000000000000000, -0.000000000000000000, 1.000000000000000000 ) ) ;
#135 = DIRECTION ( 'NONE',  ( -0.000000000000000000, -0.000000000000000000, 1.000000000000000000 ) ) ;
#136 = CARTESIAN_POINT ( 'NONE',  ( 37.50000000000000711, 2.000000000000000000, -22.50000000000000355 ) ) ;
#137 = ORIENTED_EDGE ( 'NONE', *, *, #3, .T. ) ;
#138 =( NAMED_UNIT ( * ) SI_UNIT ( $, .STERADIAN. ) SOLID_ANGLE_UNIT ( ) );
#139 =( NAMED_UNIT ( * ) PLANE_ANGLE_UNIT ( ) SI_UNIT ( $, .RADIAN. ) );
#140 = DIRECTION ( 'NONE',  ( 0.000000000000000000, 0.000000000000000000, -1.000000000000000000 ) ) ;
#141 = VECTOR ( 'NONE', #155, 1000.000000000000000 ) ;
#142 = ORIENTED_EDGE ( 'NONE', *, *, #144, .T. ) ;
#143 = AXIS2_PLACEMENT_3D ( 'NONE', #136, #101, #158 ) ;
#144 = EDGE_CURVE ( 'NONE', #131, #76, #5, .T. ) ;
#145 = VERTEX_POINT ( 'NONE', #153 ) ;
#146 = CARTESIAN_POINT ( 'NONE',  ( 37.50000000000000711, 2.000000000000000000, 22.49999999999999645 ) ) ;
#147 = MECHANICAL_DESIGN_GEOMETRIC_PRESENTATION_REPRESENTATION (  '', ( #43 ), #17 ) ;
#148 = EDGE_LOOP ( 'NONE', ( #173, #61, #102, #157 ) ) ;
#149 = DIRECTION ( 'NONE',  ( 0.000000000000000000, 0.000000000000000000, -1.000000000000000000 ) ) ;
#150 = VECTOR ( 'NONE', #35, 1000.000000000000000 ) ;
#151 = LINE ( 'NONE', #8, #91 ) ;
#152 = EDGE_CURVE ( 'NONE', #63, #57, #171, .T. ) ;
#153 = CARTESIAN_POINT ( 'NONE',  ( -37.49999999999999289, 0.000000000000000000, -22.49999999999999645 ) ) ;
#154 = ADVANCED_BREP_SHAPE_REPRESENTATION ( '\X2\80cc76d6\X0\', ( #42, #58 ), #89 ) ;
#155 = DIRECTION ( 'NONE',  ( -0.000000000000000000, -1.000000000000000000, -0.000000000000000000 ) ) ;
#156 = APPLICATION_PROTOCOL_DEFINITION ( 'draft international standard', 'automotive_design', 1998, #108 ) ;
#157 = ORIENTED_EDGE ( 'NONE', *, *, #152, .F. ) ;
#158 = DIRECTION ( 'NONE',  ( 1.000000000000000000, 0.000000000000000000, -9.251858538542971581E-17 ) ) ;
#159 = CLOSED_SHELL ( 'NONE', ( #74, #93, #60, #163, #65, #114 ) ) ;
#160 = ORIENTED_EDGE ( 'NONE', *, *, #40, .T. ) ;
#161 = COLOUR_RGB ( '',0.7921568627450980005, 0.8196078431372548767, 0.9333333333333333481 ) ;
#162 = UNCERTAINTY_MEASURE_WITH_UNIT (LENGTH_MEASURE( 1.000000000000000082E-05 ), #178, 'distance_accuracy_value', 'NONE');
#163 = ADVANCED_FACE ( 'NONE', ( #120 ), #169, .F. ) ;
#164 = CARTESIAN_POINT ( 'NONE',  ( 37.50000000000000711, 2.000000000000000000, -22.50000000000000355 ) ) ;
#165 = AXIS2_PLACEMENT_3D ( 'NONE', #95, #50, #122 ) ;
#166 = CARTESIAN_POINT ( 'NONE',  ( 37.50000000000000711, 0.000000000000000000, 22.49999999999999645 ) ) ;
#167 = DIRECTION ( 'NONE',  ( -1.000000000000000000, 0.000000000000000000, 0.000000000000000000 ) ) ;
#168 = CARTESIAN_POINT ( 'NONE',  ( 37.50000000000000711, 0.000000000000000000, -22.50000000000000355 ) ) ;
#169 = PLANE ( 'NONE',  #143 ) ;
#170 = PLANE ( 'NONE',  #104 ) ;
#171 = LINE ( 'NONE', #166, #14 ) ;
#172 = EDGE_LOOP ( 'NONE', ( #142, #160, #79, #137 ) ) ;
#173 = ORIENTED_EDGE ( 'NONE', *, *, #30, .F. ) ;
#174 = ORIENTED_EDGE ( 'NONE', *, *, #45, .F. ) ;
#175 = PRODUCT_RELATED_PRODUCT_CATEGORY ( 'part', '', ( #1 ) ) ;
#176 = AXIS2_PLACEMENT_3D ( 'NONE', #97, #20, #183 ) ;
#177 = VERTEX_POINT ( 'NONE', #109 ) ;
#178 =( LENGTH_UNIT ( ) NAMED_UNIT ( * ) SI_UNIT ( .MILLI., .METRE. ) );
#179 = ORIENTED_EDGE ( 'NONE', *, *, #30, .T. ) ;
#180 = SURFACE_STYLE_FILL_AREA ( #70 ) ;
#181 = CARTESIAN_POINT ( 'NONE',  ( 37.50000000000000711, 2.000000000000000000, 22.49999999999999645 ) ) ;
#182 =( LENGTH_UNIT ( ) NAMED_UNIT ( * ) SI_UNIT ( .MILLI., .METRE. ) );
#183 = DIRECTION ( 'NONE',  ( 0.000000000000000000, 0.000000000000000000, -1.000000000000000000 ) ) ;
#184 = DIRECTION ( 'NONE',  ( 0.000000000000000000, -0.000000000000000000, 1.000000000000000000 ) ) ;
#185 = PRODUCT_CONTEXT ( 'NONE', #108, 'mechanical' ) ;
#186 = ORIENTED_EDGE ( 'NONE', *, *, #13, .F. ) ;
#187 = ORIENTED_EDGE ( 'NONE', *, *, #13, .T. ) ;
ENDSEC;
END-ISO-10303-21;
